<svg version="1.1" id="Layer_1" xmlns="http://www.w3.org/2000/svg" xmlns:xlink="http://www.w3.org/1999/xlink" x="0px" y="0px" viewBox="0 0 500 500" style="width: 181px;" xml:space="preserve" data-imageid="coding-2-7" imageName="Coding 2" class="illustrations_image">
<style type="text/css">
	.st0_coding-2-7{fill:#68E1FD;}
	.st1_coding-2-7{fill:#093F68;}
	.st2_coding-2-7{fill:#FFFFFF;}
	.st3_coding-2-7{fill:#F56132;}
	.st4_coding-2-7{fill:#FFBC0E;}
	.st5_coding-2-7{fill:#70CC40;}
	.st6_coding-2-7{fill:#DFEAEF;}
</style>
<g id="tab-2_coding-2-7">
	<path class="st0_coding-2-7 targetColor" d="M417.2,138.2v249.5c0,3.8-3.1,6.8-6.8,6.8H120.6c-3.8,0-6.8-3.1-6.8-6.8V138.2c0-3.8,3.1-6.8,6.8-6.9&#10;&#9;&#9;c0,0,0,0,0,0h289.8C414.1,131.3,417.2,134.4,417.2,138.2L417.2,138.2z" style="fill: rgb(104, 225, 253);"/>
	<path class="st1_coding-2-7" d="M410.4,396.3H120.6c-4.8,0-8.7-3.9-8.7-8.7V138.2c0-4.8,3.9-8.7,8.7-8.7h289.8c4.8,0,8.7,3.9,8.7,8.7v249.5&#10;&#9;&#9;C419,392.4,415.2,396.3,410.4,396.3z M120.6,133.2c-2.8,0-5,2.2-5,5v249.4c0,2.8,2.2,5,5,5h289.8c2.8,0,5-2.2,5-5V138.2&#10;&#9;&#9;c0-2.8-2.2-5-5-5L120.6,133.2z"/>
</g>
<g id="tab-1_coding-2-7">
	<path class="st2_coding-2-7" d="M386.2,112.4v249.4c0,3.8-3,6.8-6.8,6.8c0,0,0,0,0,0H89.7c-3.8,0-6.8-3.1-6.8-6.8c0,0,0,0,0,0V112.4&#10;&#9;&#9;c0-3.8,3.1-6.8,6.8-6.8c0,0,0,0,0,0h289.8C383.2,105.5,386.3,108.6,386.2,112.4z"/>
	<path class="st1_coding-2-7" d="M379.4,370.5H89.7c-4.8,0-8.7-3.9-8.7-8.7V112.4c0-4.8,3.9-8.7,8.7-8.7h289.8c4.8,0,8.7,3.9,8.7,8.7v249.4&#10;&#9;&#9;C388.1,366.6,384.2,370.5,379.4,370.5z M89.7,107.4c-2.8,0-5,2.2-5,5v249.4c0,2.8,2.2,5,5,5h289.8c2.8,0,5-2.2,5-5V112.4&#10;&#9;&#9;c0-2.8-2.2-5-5-5L89.7,107.4z"/>
	<path class="st1_coding-2-7" d="M386.2,112.4v249.4c0,3.8-3,6.8-6.8,6.8c0,0,0,0,0,0H186.7V105.5h192.7C383.2,105.5,386.3,108.6,386.2,112.4z"/>
	<path class="st1_coding-2-7" d="M379.4,370.5H186.7c-1,0-1.9-0.8-1.9-1.9V105.5c0-1,0.8-1.9,1.9-1.9h192.7c4.8,0,8.7,3.9,8.7,8.7v249.4&#10;&#9;&#9;C388.1,366.6,384.2,370.5,379.4,370.5z M188.6,366.8h190.9c2.8,0,5-2.2,5-5V112.4c0-2.8-2.2-5-5-5H188.6V366.8z"/>
	<path class="st2_coding-2-7" d="M386.2,112.4v28.1H82.8v-28.1c0-3.8,3.1-6.8,6.8-6.8c0,0,0,0,0,0h289.8C383.2,105.5,386.3,108.6,386.2,112.4z"/>
	<path class="st1_coding-2-7" d="M386.2,142.4H82.8c-1,0-1.8-0.9-1.8-1.9v-28.1c0-4.8,3.9-8.7,8.7-8.7h289.7c4.8,0,8.7,3.9,8.7,8.7v28.1&#10;&#9;&#9;C388.1,141.5,387.3,142.4,386.2,142.4L386.2,142.4z M84.7,138.6h299.7v-26.2c0-2.8-2.2-5-5-5H89.7c-2.8,0-5,2.2-5,5L84.7,138.6z"/>
	<circle class="st3_coding-2-7" cx="106.2" cy="122" r="6.3"/>
	<path class="st1_coding-2-7" d="M106.2,130.2c-4.5,0-8.2-3.7-8.2-8.2c0-4.5,3.7-8.2,8.2-8.2c4.5,0,8.2,3.7,8.2,8.2c0,0,0,0,0,0&#10;&#9;&#9;C114.4,126.6,110.8,130.2,106.2,130.2z M106.2,117.6c-2.5,0-4.5,2-4.5,4.5s2,4.5,4.5,4.5s4.5-2,4.5-4.5l0,0&#10;&#9;&#9;C110.7,119.6,108.7,117.6,106.2,117.6z"/>
	<circle class="st4_coding-2-7" cx="131.8" cy="122" r="6.3"/>
	<path class="st1_coding-2-7" d="M131.8,130.2c-4.5,0-8.2-3.7-8.2-8.2s3.7-8.2,8.2-8.2c4.5,0,8.2,3.7,8.2,8.2&#10;&#9;&#9;C140,126.5,136.3,130.2,131.8,130.2C131.8,130.2,131.8,130.2,131.8,130.2z M131.8,117.6c-2.5,0-4.5,2-4.5,4.4c0,2.5,2,4.5,4.4,4.5&#10;&#9;&#9;s4.5-2,4.5-4.4c0,0,0,0,0,0C136.2,119.6,134.2,117.6,131.8,117.6z"/>
	<circle class="st5_coding-2-7" cx="157.3" cy="122" r="6.3"/>
	<path class="st1_coding-2-7" d="M157.3,130.2c-4.5,0-8.2-3.7-8.2-8.2c0-4.5,3.7-8.2,8.2-8.2c4.5,0,8.2,3.7,8.2,8.2c0,0,0,0,0,0&#10;&#9;&#9;C165.5,126.6,161.8,130.2,157.3,130.2z M157.3,117.6c-2.5,0-4.5,2-4.5,4.4c0,2.5,2,4.5,4.4,4.5s4.5-2,4.5-4.4c0,0,0,0,0,0&#10;&#9;&#9;C161.8,119.6,159.8,117.6,157.3,117.6z"/>
	<path class="st6_coding-2-7" d="M153.2,164.2h-51.6c-1,0-1.9-0.8-1.9-1.9c0-1,0.8-1.9,1.9-1.9h51.6c1,0,1.9,0.8,1.9,1.9&#10;&#9;&#9;C155.1,163.4,154.3,164.2,153.2,164.2z"/>
	<path class="st6_coding-2-7" d="M162.1,187.5h-43.5c-1,0-1.9-0.8-1.9-1.9c0-1,0.8-1.9,1.9-1.9h43.5c1,0,1.9,0.8,1.9,1.9&#10;&#9;&#9;C164,186.6,163.1,187.5,162.1,187.5z"/>
	<path class="st6_coding-2-7" d="M168,210.7h-36.1c-1,0-1.9-0.8-1.9-1.9c0-1,0.8-1.9,1.9-1.9H168c1,0,1.9,0.8,1.9,1.9&#10;&#9;&#9;C169.9,209.9,169,210.7,168,210.7z"/>
	<path class="st6_coding-2-7" d="M156.2,233.9h-45.7c-1-0.1-1.8-1-1.7-2c0.1-0.9,0.8-1.7,1.7-1.7h45.7c1,0.1,1.8,1,1.7,2&#10;&#9;&#9;C157.8,233.1,157.1,233.9,156.2,233.9z"/>
	<path class="st6_coding-2-7" d="M143.9,257.1h-42.3c-1-0.1-1.8-1-1.7-2c0.1-0.9,0.8-1.7,1.7-1.7h42.3c1,0.1,1.8,1,1.7,2&#10;&#9;&#9;C145.6,256.3,144.8,257.1,143.9,257.1z"/>
	<path class="st6_coding-2-7" d="M153.2,280.4h-37.3c-1,0.1-1.9-0.7-2-1.7s0.7-1.9,1.7-2c0.1,0,0.2,0,0.3,0h37.3c1-0.1,1.9,0.7,2,1.7&#10;&#9;&#9;c0.1,1-0.7,1.9-1.7,2C153.4,280.4,153.3,280.4,153.2,280.4z"/>
	<path class="st6_coding-2-7" d="M140.3,303.6h-38.7c-1-0.1-1.8-1-1.7-2c0.1-0.9,0.8-1.7,1.7-1.7h38.7c1-0.1,1.9,0.7,2,1.7c0.1,1-0.7,1.9-1.7,2&#10;&#9;&#9;C140.5,303.6,140.4,303.6,140.3,303.6z"/>
	<path class="st6_coding-2-7" d="M153.2,326.8h-37.3c-1,0-1.9-0.8-1.9-1.9c0-1,0.8-1.9,1.9-1.9c0,0,0,0,0,0h37.3c1,0,1.9,0.8,1.9,1.9&#10;&#9;&#9;C155.1,326,154.3,326.8,153.2,326.8C153.2,326.8,153.2,326.8,153.2,326.8z"/>
	<path class="st2_coding-2-7" d="M238.1,164.2h-31.4c-1,0-1.9-0.8-1.9-1.9c0-1,0.8-1.9,1.9-1.9h31.4c1,0,1.9,0.8,1.9,1.9&#10;&#9;&#9;C239.9,163.4,239.1,164.2,238.1,164.2z"/>
	<path class="st4_coding-2-7" d="M281.5,187.5H217c-1,0-1.9-0.8-1.9-1.9c0-1,0.8-1.9,1.9-1.9l0,0h64.5c1,0,1.9,0.8,1.9,1.9&#10;&#9;&#9;C283.4,186.6,282.6,187.5,281.5,187.5L281.5,187.5z"/>
	<path class="st4_coding-2-7" d="M265.5,210.7H217c-1,0-1.9-0.8-1.9-1.9c0-1,0.8-1.9,1.9-1.9l0,0h48.5c1,0,1.9,0.8,1.9,1.9&#10;&#9;&#9;C267.4,209.9,266.5,210.7,265.5,210.7L265.5,210.7z"/>
	<path class="st2_coding-2-7" d="M239.9,233.9H212c-1-0.1-1.8-1-1.7-2c0.1-0.9,0.8-1.7,1.7-1.7h27.9c1,0.1,1.8,1,1.7,2&#10;&#9;&#9;C241.5,233.1,240.8,233.9,239.9,233.9z"/>
	<path class="st3_coding-2-7" d="M250.9,257.1h-31.4c-1-0.1-1.8-1-1.7-2c0.1-0.9,0.8-1.7,1.7-1.7h31.4c1,0.1,1.8,1,1.7,2&#10;&#9;&#9;C252.6,256.3,251.9,257.1,250.9,257.1z"/>
	<path class="st2_coding-2-7" d="M267,280.4h-48.6c-1-0.1-1.8-1-1.7-2c0.1-0.9,0.8-1.7,1.7-1.7H267c1,0.1,1.8,1,1.7,2&#10;&#9;&#9;C268.7,279.6,267.9,280.3,267,280.4z"/>
	<path class="st2_coding-2-7" d="M230.2,303.6h-23.6c-1-0.1-1.8-1-1.7-2c0.1-0.9,0.8-1.7,1.7-1.7h23.6c1,0.1,1.8,1,1.7,2&#10;&#9;&#9;C231.9,302.8,231.1,303.5,230.2,303.6z"/>
	<path class="st5_coding-2-7" d="M267,326.8h-51.7c-1,0-1.9-0.8-1.9-1.9c0-1,0.8-1.9,1.9-1.9H267c1,0,1.9,0.8,1.9,1.9&#10;&#9;&#9;C268.9,326,268,326.8,267,326.8z"/>
	<path class="st4_coding-2-7" d="M316.5,326.8h-33.9c-1,0-1.9-0.8-1.9-1.9c0-1,0.8-1.9,1.9-1.9c0,0,0,0,0,0h33.9c1,0,1.9,0.8,1.9,1.9&#10;&#9;&#9;C318.3,326,317.5,326.8,316.5,326.8z"/>
	<path class="st2_coding-2-7" d="M305.5,210.7h-24c-1,0-1.9-0.8-1.9-1.9c0-1,0.8-1.9,1.9-1.9h24c1,0,1.9,0.8,1.9,1.9&#10;&#9;&#9;C307.3,209.9,306.5,210.7,305.5,210.7z"/>
	<path class="st0_coding-2-7 targetColor" d="M339.6,187.5h-46.1c-1,0-1.9-0.8-1.9-1.9c0-1,0.8-1.9,1.9-1.9h46.1c1,0,1.9,0.8,1.9,1.9&#10;&#9;&#9;C341.5,186.6,340.6,187.5,339.6,187.5z" style="fill: rgb(104, 225, 253);"/>
	<path class="st3_coding-2-7" d="M332,210.7h-13.5c-1,0-1.9-0.8-1.9-1.9c0-1,0.8-1.9,1.9-1.9H332c1,0,1.9,0.8,1.9,1.9&#10;&#9;&#9;C333.9,209.9,333,210.7,332,210.7z"/>
	<path class="st3_coding-2-7" d="M273.7,257.1h-13.5c-1-0.1-1.8-1-1.7-2c0.1-0.9,0.8-1.7,1.7-1.7h13.5c1,0.1,1.8,1,1.7,2&#10;&#9;&#9;C275.4,256.3,274.6,257.1,273.7,257.1z"/>
	<path class="st4_coding-2-7" d="M339.6,257.1h-54.8c-1-0.1-1.8-1-1.7-2c0.1-0.9,0.8-1.7,1.7-1.7h54.8c1,0.1,1.8,1,1.7,2&#10;&#9;&#9;C341.3,256.3,340.5,257.1,339.6,257.1z"/>
	<path class="st0_coding-2-7 targetColor" d="M293.5,280.4h-12c-1,0.1-1.9-0.7-2-1.7s0.7-1.9,1.7-2c0.1,0,0.2,0,0.3,0h12c1,0.1,1.8,1,1.7,2&#10;&#9;&#9;C295.1,279.6,294.4,280.3,293.5,280.4z" style="fill: rgb(104, 225, 253);"/>
	<path class="st2_coding-2-7" d="M339.6,326.8H332c-1,0-1.9-0.8-1.9-1.9c0-1,0.8-1.9,1.9-1.9h7.6c1,0,1.9,0.8,1.9,1.9&#10;&#9;&#9;C341.5,326,340.7,326.8,339.6,326.8L339.6,326.8z"/>
</g>
</svg>