<svg version="1.1" id="Layer_1" xmlns="http://www.w3.org/2000/svg" xmlns:xlink="http://www.w3.org/1999/xlink" x="0px" y="0px" viewBox="0 0 500 500" style="width: 181px;" xml:space="preserve" data-imageid="files-and-folder-55" imageName="Files and Folder" class="illustrations_image">
<style type="text/css">
	.st0_files-and-folder-55{fill:#68E1FD;}
	.st1_files-and-folder-55{fill:#093F68;}
	.st2_files-and-folder-55{fill:#FFBC0E;}
	.st3_files-and-folder-55{fill:#FFFFFF;}
	.st4_files-and-folder-55{fill:#70CC40;}
	.st5_files-and-folder-55{fill:#F56132;}
</style>
<g id="files_files-and-folder-55">
	<polygon class="st0_files-and-folder-55 targetColor" points="82.1,384.8 82.1,159.5 186.5,159.5 210.1,180.6 365.4,180.6 365.4,384.8 &#9;" style="fill: rgb(104, 225, 253);"/>
	<path class="st1_files-and-folder-55" d="M365.4,386.6H82.1c-1,0-1.8-0.8-1.8-1.8V159.5c0-1,0.8-1.8,1.8-1.8h104.4c0.4,0,0.9,0.2,1.2,0.5l23.1,20.6&#10;&#9;&#9;h154.6c1,0,1.8,0.8,1.8,1.8v204.2C367.3,385.8,366.4,386.6,365.4,386.6z M83.9,382.9h279.7V182.4H210.1c-0.4,0-0.9-0.2-1.2-0.5&#10;&#9;&#9;l-23.1-20.6H83.9V382.9z"/>
	
		<rect x="105" y="126.8" transform="matrix(0.9956 -9.393455e-02 9.393455e-02 0.9956 -22.2645 22.2522)" class="st2_files-and-folder-55" width="240.4" height="241.6"/>
	<path class="st1_files-and-folder-55" d="M116.9,381c-0.9,0-1.7-0.7-1.8-1.7L92.4,138.8c0-0.5,0.1-1,0.4-1.3c0.3-0.4,0.8-0.6,1.2-0.6l239.3-22.6&#10;&#9;&#9;c1-0.1,1.9,0.6,2,1.6c0,0,0,0,0,0l22.7,240.6c0.1,1-0.6,1.9-1.6,2c0,0,0,0,0,0L117.1,381H116.9z M96.2,140.3l22.3,236.9L354.3,355&#10;&#9;&#9;l-22.4-236.9L96.2,140.3z"/>
	<rect x="117.6" y="145.7" class="st3_files-and-folder-55" width="240.4" height="217.4"/>
	<path class="st1_files-and-folder-55" d="M358,364.9H117.6c-1,0-1.8-0.8-1.8-1.8l0,0V145.7c0-1,0.8-1.8,1.8-1.8H358c1,0,1.8,0.8,1.8,1.8c0,0,0,0,0,0&#10;&#9;&#9;v217.4C359.8,364.1,359,364.9,358,364.9C358,364.9,358,364.9,358,364.9z M119.4,361.3h236.7V147.5H119.4L119.4,361.3z"/>
	<path class="st4_files-and-folder-55" d="M328.5,176.7h-48.1c-1,0.1-1.9-0.7-2-1.7c-0.1-1,0.7-1.9,1.7-2c0.1,0,0.2,0,0.3,0h48.1c1-0.1,1.9,0.7,2,1.7&#10;&#9;&#9;c0.1,1-0.7,1.9-1.7,2C328.7,176.7,328.6,176.7,328.5,176.7z"/>
	<path class="st4_files-and-folder-55" d="M328.5,199.7H149.7c-1-0.1-1.8-1-1.7-2c0.1-0.9,0.8-1.6,1.7-1.7h178.8c1-0.1,1.9,0.7,2,1.7&#10;&#9;&#9;c0.1,1-0.7,1.9-1.7,2C328.7,199.7,328.6,199.7,328.5,199.7z"/>
	<path class="st4_files-and-folder-55" d="M328.5,222.8H149.7c-1,0-1.8-0.8-1.8-1.8s0.8-1.8,1.8-1.8h178.8c1,0,1.8,0.8,1.8,1.8S329.5,222.8,328.5,222.8z&#10;&#9;&#9;"/>
	<path class="st4_files-and-folder-55" d="M328.5,245.8H149.7c-1-0.1-1.8-1-1.7-2c0.1-0.9,0.8-1.6,1.7-1.7h178.8c1-0.1,1.9,0.7,2,1.7&#10;&#9;&#9;c0.1,1-0.7,1.9-1.7,2C328.7,245.8,328.6,245.8,328.5,245.8z"/>
	<polygon class="st0_files-and-folder-55 targetColor" points="82.1,384.8 125.3,237.7 258,237.7 277.5,219.7 417.9,219.7 367.5,384.8 &#9;" style="fill: rgb(104, 225, 253);"/>
	<path class="st1_files-and-folder-55" d="M367.5,386.6H82.1c-1,0-1.8-0.8-1.8-1.8c0-0.2,0-0.4,0.1-0.5l43.2-147.1c0.2-0.8,0.9-1.3,1.8-1.3h132l19-17.5&#10;&#9;&#9;c0.3-0.3,0.8-0.5,1.2-0.5h140.4c0.6,0,1.1,0.3,1.5,0.7c0.3,0.5,0.5,1.1,0.3,1.6l-50.4,165.1C369,386,368.3,386.6,367.5,386.6z&#10;&#9;&#9; M84.6,382.9h281.6l49.3-161.4H278.2l-19,17.5c-0.3,0.3-0.8,0.5-1.2,0.5H126.7L84.6,382.9z"/>
	<path class="st5_files-and-folder-55" d="M355.1,364.3h-58.6c-1-0.1-1.8-1-1.7-2c0.1-0.9,0.8-1.6,1.7-1.7h58.6c1-0.1,1.9,0.7,2,1.7c0.1,1-0.7,1.9-1.7,2&#10;&#9;&#9;C355.3,364.3,355.2,364.3,355.1,364.3L355.1,364.3z"/>
	<path class="st4_files-and-folder-55" d="M170.9,176.7h-21.2c-1-0.1-1.8-1-1.7-2c0.1-0.9,0.8-1.6,1.7-1.7h21.2c1-0.1,1.9,0.7,2,1.7c0.1,1-0.7,1.9-1.7,2&#10;&#9;&#9;C171.1,176.7,171,176.7,170.9,176.7z"/>
</g>
</svg>