<svg version="1.1" id="Layer_1" xmlns="http://www.w3.org/2000/svg" xmlns:xlink="http://www.w3.org/1999/xlink" x="0px" y="0px" viewBox="0 0 500 500" style="width: 181px;" xml:space="preserve" data-imageid="coding-3-85" imageName="Coding 3" class="illustrations_image">
<style type="text/css">
	.st0_coding-3-85{fill:#093F68;}
	.st1_coding-3-85{fill:#FFFFFF;}
	.st2_coding-3-85{fill:#DFEAEF;}
	.st3_coding-3-85{fill:#FFC9B0;}
	.st4_coding-3-85{fill:#68E1FD;}
	.st5_coding-3-85{fill:#FFBC0E;}
	.st6_coding-3-85{fill:#F56132;}
	.st7_coding-3-85{fill:#70CC40;}
</style>
<g id="keyboard_coding-3-85">
	<path class="st0_coding-3-85" d="M117.5,258h265c4.1,0,7.5,3.3,7.5,7.5V399c0,4.1-3.3,7.5-7.5,7.5h-265c-4.1,0-7.5-3.3-7.5-7.5V265.5&#10;&#9;&#9;C110.1,261.4,113.4,258,117.5,258z"/>
	<path class="st0_coding-3-85" d="M382.4,408.2H117.6c-5.2,0-9.4-4.2-9.4-9.4V265.6c0-5.2,4.2-9.4,9.4-9.4h264.8c5.2,0,9.4,4.2,9.4,9.4v133.3&#10;&#9;&#9;C391.8,404.1,387.6,408.2,382.4,408.2z M117.6,259.8c-3.2,0-5.7,2.6-5.7,5.7v133.3c0,3.2,2.6,5.7,5.7,5.8h264.8&#10;&#9;&#9;c3.2,0,5.7-2.6,5.7-5.8V265.6c0-3.2-2.6-5.7-5.7-5.7L117.6,259.8z"/>
	<path class="st1_coding-3-85" d="M118.4,249.7h263.2c4.6,0,8.4,3.7,8.4,8.4v131.7c0,4.6-3.7,8.4-8.4,8.4H118.4c-4.6,0-8.4-3.7-8.4-8.4V258.1&#10;&#9;&#9;C110.1,253.5,113.8,249.7,118.4,249.7z"/>
	<path class="st0_coding-3-85" d="M382.4,400H117.6c-5.2,0-9.4-4.2-9.4-9.4V257.3c0-5.2,4.2-9.4,9.4-9.4h264.8c5.2,0,9.4,4.2,9.4,9.4v133.3&#10;&#9;&#9;C391.8,395.8,387.6,400,382.4,400z M117.6,251.6c-3.2,0-5.7,2.6-5.7,5.7v133.3c0,3.2,2.6,5.7,5.7,5.7h264.8c3.2,0,5.7-2.6,5.7-5.7&#10;&#9;&#9;V257.3c0-3.2-2.6-5.7-5.7-5.7H117.6z"/>
	<path class="st2_coding-3-85" d="M361.6,343.1H138.4c-5.6,0-10.2-4.6-10.2-10.2v-60.1c0-5.6,4.6-10.2,10.2-10.2h223.2c5.6,0,10.2,4.6,10.2,10.2&#10;&#9;&#9;v60.1C371.8,338.6,367.2,343.1,361.6,343.1z M138.4,266.3c-3.6,0-6.6,2.9-6.6,6.6v60.1c0,3.6,2.9,6.6,6.6,6.6h223.2&#10;&#9;&#9;c3.6,0,6.6-2.9,6.6-6.6v-60.1c0-3.6-3-6.6-6.6-6.6L138.4,266.3z"/>
	<path class="st2_coding-3-85" d="M278.6,386.7h-57.2c-4.3,0-7.8-3.5-7.8-7.8v-21.6c0-4.3,3.5-7.8,7.8-7.8h57.2c4.3,0,7.8,3.5,7.8,7.8v21.6&#10;&#9;&#9;C286.4,383.2,282.9,386.7,278.6,386.7z M221.4,353.1c-2.3,0-4.2,1.9-4.2,4.2v21.6c0,2.3,1.9,4.2,4.2,4.2c0,0,0,0,0,0h57.2&#10;&#9;&#9;c2.3,0,4.2-1.9,4.2-4.2v-21.6c0-2.3-1.9-4.2-4.2-4.2H221.4z"/>
</g>
<g id="hand-2_coding-3-85">
	<path class="st3_coding-3-85" d="M307.8,408.2v-28.1c0,0-15.9-12.8-18.9-18.6s-7-26.2,0-27.4s7,11.3,8.8,14s7.3,5.5,7.3,5.5v-54&#10;&#9;&#9;c0-12.2,12.8-6.6,14,0.5c0,0-0.5-12.8,6-11.9s7.3,9.8,7.3,12.8c0,0,0.1-10.8,6.2-9.6c8.2,1.5,9.6,14.9,9.6,14.9s0.6-12.7,7.3-8.5&#10;&#9;&#9;s6.3,14.6,6.9,19.2s0,48.2,0,56.7s-9.5,11.6-9.5,11.6v22.9L307.8,408.2z"/>
	<path class="st0_coding-3-85" d="M352.9,410h-45.1c-1,0-1.8-0.8-1.8-1.8V381c-3.1-2.6-15.9-13.2-18.7-18.6c-2.5-4.7-6.1-20-2.8-26.8&#10;&#9;&#9;c0.7-1.7,2.3-3,4.1-3.3c6.7-1.2,8.5,6.6,9.6,11.2c0.2,1.2,0.6,2.5,1.1,3.6c1.1,1.4,2.5,2.5,4,3.4v-50.8c0-7.8,4.8-8.8,6.3-8.9&#10;&#9;&#9;c2.9-0.3,6,1.2,8.2,3.4c0.5-2.4,1.3-4.9,3-6.4c1.2-1.1,2.9-1.6,4.6-1.4c3.9,0.5,6,3.2,7.3,6.2c0.4-0.7,0.9-1.3,1.6-1.9&#10;&#9;&#9;c1.3-1.1,3.1-1.5,4.8-1.2c4.9,0.9,7.6,5.1,9.2,9c0.6-1.3,1.5-2.3,2.7-3c1.2-0.6,3.1-1,5.6,0.6c6.4,4.1,7.1,12.4,7.5,18&#10;&#9;&#9;c0.1,1,0.1,1.8,0.2,2.5c0.4,3.3,0.3,23.9,0.1,44.9c0,5.5-0.1,9.9-0.1,12.1c0,7.8-6.6,11.6-9.5,12.8v21.6&#10;&#9;&#9;C354.7,409.2,353.9,410,352.9,410z M309.6,406.4h41.5v-21c0-0.8,0.5-1.5,1.2-1.7c0.3-0.1,8.2-2.8,8.2-9.9c0-2.2,0-6.6,0.1-12.1&#10;&#9;&#9;c0.1-15.4,0.4-41.1-0.1-44.3c-0.1-0.8-0.2-1.7-0.3-2.7c-0.4-4.8-1-12.1-5.9-15.2c-0.9-0.6-1.6-0.7-2-0.5c-1.5,0.8-2.4,4.9-2.5,7.5&#10;&#9;&#9;c-0.1,0.9-0.8,1.7-1.8,1.7c-1,0.1-1.8-0.7-1.9-1.6c0,0,0,0,0,0c0-0.1-1.3-12-8.1-13.3c-0.6-0.2-1.3,0-1.8,0.4&#10;&#9;&#9;c-1.6,1.3-2.2,5.3-2.3,7.5c0,1-0.8,1.8-1.8,1.8l0,0c-1,0-1.8-0.8-1.8-1.8c0-0.4-0.1-10.2-5.8-11c-0.6-0.1-1.2,0-1.6,0.5&#10;&#9;&#9;c-2.1,1.9-2.3,7.7-2.3,9.6c0,1-0.8,1.8-1.8,1.9c-0.9,0-1.7-0.6-1.8-1.5c-0.6-3.4-4.7-6.3-7.5-6.1c-2.4,0.2-2.9,3-2.9,5.3v54&#10;&#9;&#9;c0,0.6-0.3,1.2-0.9,1.5c-0.5,0.3-1.2,0.4-1.8,0.1c-0.6-0.3-6-3-8-6.1c-0.8-1.5-1.3-3.1-1.6-4.8c-1.4-6-2.6-8.9-5.4-8.4&#10;&#9;&#9;c-0.4,0.1-1,0.3-1.5,1.3c-2.4,5,0.4,19,2.8,23.5s14.1,14.5,18.4,18c0.4,0.3,0.7,0.9,0.7,1.4L309.6,406.4z"/>
	<path class="st0_coding-3-85" d="M319.1,332c-1,0-1.8-0.8-1.8-1.8v-30c0.1-1,0.9-1.8,1.9-1.7c0.9,0.1,1.6,0.8,1.7,1.7v30&#10;&#9;&#9;C320.9,331.2,320.1,332,319.1,332C319.1,332,319.1,332,319.1,332z"/>
	<path class="st0_coding-3-85" d="M332.3,330.5c-1,0-1.8-0.8-1.8-1.8l0,0V301c0.1-1,0.9-1.8,1.9-1.7c0.9,0.1,1.6,0.8,1.7,1.7v27.6&#10;&#9;&#9;C334.2,329.6,333.4,330.4,332.3,330.5C332.4,330.4,332.4,330.5,332.3,330.5z"/>
	<path class="st0_coding-3-85" d="M348.1,330.5c-1,0-1.8-0.8-1.8-1.8c0,0,0,0,0,0v-22.3c0.1-1,0.9-1.8,1.9-1.7c0.9,0.1,1.6,0.8,1.7,1.7v22.3&#10;&#9;&#9;C349.9,329.6,349.1,330.4,348.1,330.5C348.1,330.5,348.1,330.5,348.1,330.5z"/>
	<rect x="303.4" y="393.2" class="st4_coding-3-85 targetColor" width="55.4" height="24.5" style="fill: rgb(104, 225, 253);"/>
	<path class="st0_coding-3-85" d="M358.8,419.5h-55.4c-1,0-1.8-0.8-1.8-1.8v-24.5c0-1,0.8-1.8,1.8-1.8h55.4c1,0,1.8,0.8,1.8,1.8c0,0,0,0,0,0&#10;&#9;&#9;v24.5C360.6,418.7,359.8,419.5,358.8,419.5C358.8,419.5,358.8,419.5,358.8,419.5z M305.2,415.9H357V395h-51.8V415.9z"/>
	<path class="st4_coding-3-85 targetColor" d="M364,418.6v-6.7c0-4-3.2-7.2-7.2-7.2h-52.4c-4,0-7.2,3.2-7.2,7.2v6.7H364z" style="fill: rgb(104, 225, 253);"/>
	<path class="st0_coding-3-85" d="M364,420.4h-66.9c-1,0-1.8-0.8-1.8-1.8c0,0,0,0,0,0v-6.7c0-5,4.1-9.1,9.1-9.1h52.4c5,0,9.1,4.1,9.1,9.1v6.7&#10;&#9;&#9;C365.8,419.6,365,420.4,364,420.4z M298.9,416.8h63.3v-4.9c0-3-2.4-5.4-5.4-5.4h-52.4c-3,0-5.4,2.4-5.4,5.4L298.9,416.8z"/>
</g>
<g id="hand-1_coding-3-85">
	<path class="st3_coding-3-85" d="M191.7,396v-28.1c0,0,15.9-12.8,18.9-18.6s7-26.2,0-27.5s-7,11.3-8.8,14s-7.3,5.5-7.3,5.5v-54&#10;&#9;&#9;c0-12.2-12.8-6.6-14,0.5c0,0,0.5-12.8-5.9-11.9s-7.3,9.8-7.3,12.8c0,0-0.1-10.8-6.2-9.6c-8.2,1.5-9.6,14.9-9.6,14.9&#10;&#9;&#9;s-0.6-12.7-7.3-8.5s-6.3,14.6-6.9,19.2s0,48.2,0,56.7s9.4,11.6,9.4,11.6v23H191.7z"/>
	<path class="st0_coding-3-85" d="M191.7,397.8h-45.1c-1,0-1.8-0.8-1.8-1.8v-21.6c-2.8-1.2-9.5-5-9.5-12.8c0-2.2,0-6.6-0.1-12.1&#10;&#9;&#9;c-0.2-20.9-0.3-41.6,0.1-44.9c0.1-0.7,0.2-1.6,0.2-2.5c0.4-5.2,1.1-13.9,7.5-18c2.6-1.6,4.5-1.2,5.6-0.6c1.2,0.7,2.1,1.7,2.7,3&#10;&#9;&#9;c1.5-3.9,4.3-8.1,9.2-9c1.7-0.4,3.4,0.1,4.8,1.2c0.6,0.5,1.1,1.2,1.6,1.9c1.2-2.9,3.4-5.6,7.3-6.2c1.6-0.3,3.3,0.2,4.6,1.4&#10;&#9;&#9;c1.7,1.5,2.5,4,3,6.4c2.1-2.3,5.1-3.5,8.2-3.5c1.5,0.1,6.2,1.1,6.2,8.9v50.9c1.5-0.9,2.9-2,4-3.4c0.5-1.2,0.9-2.4,1.1-3.6&#10;&#9;&#9;c1.1-4.6,2.9-12.4,9.6-11.2c1.8,0.3,3.4,1.6,4.1,3.3c3.3,6.8-0.4,22.1-2.8,26.8c-2.9,5.4-15.6,16-18.7,18.6V396&#10;&#9;&#9;C193.5,397,192.7,397.8,191.7,397.8z M148.4,394.1h41.5v-26.2c0-0.5,0.3-1.1,0.7-1.4c4.3-3.5,16.1-13.6,18.4-18s5.2-18.5,2.8-23.5&#10;&#9;&#9;c-0.5-1-1.1-1.3-1.5-1.3c-2.8-0.5-4,2.5-5.4,8.4c-0.3,1.7-0.8,3.3-1.6,4.8c-2,3-7.4,5.8-8,6.1c-0.9,0.4-2,0.1-2.4-0.8&#10;&#9;&#9;c-0.1-0.3-0.2-0.5-0.2-0.8v-54c0-2.3-0.5-5.1-2.9-5.3c-2.8-0.2-6.9,2.7-7.5,6.1c-0.1,1-1,1.7-2,1.6c-1-0.1-1.7-1-1.6-2&#10;&#9;&#9;c0.1-2.8-0.4-7.9-2.2-9.6c-0.4-0.4-1-0.6-1.6-0.5c-5.7,0.8-5.8,10.6-5.8,11c0,1-0.8,1.8-1.8,1.8c0,0,0,0,0,0c-1,0-1.8-0.8-1.8-1.8&#10;&#9;&#9;c0-2.2-0.7-6.1-2.3-7.5c-0.5-0.4-1.2-0.6-1.8-0.4c-6.8,1.3-8.1,13.2-8.1,13.3c-0.1,0.9-0.9,1.6-1.9,1.6c-0.9,0-1.7-0.8-1.8-1.7&#10;&#9;&#9;c-0.1-2.6-1-6.7-2.5-7.5c-0.4-0.2-1.1-0.1-2,0.5c-4.9,3.1-5.5,10.4-5.9,15.2c-0.1,1-0.2,2-0.3,2.7c-0.4,3.3-0.2,29-0.1,44.3&#10;&#9;&#9;c0,5.5,0.1,10,0.1,12.1c0,7.1,7.9,9.8,8.2,9.9c0.7,0.3,1.2,0.9,1.2,1.7L148.4,394.1z"/>
	<path class="st0_coding-3-85" d="M180.4,319.7c-1,0-1.8-0.8-1.8-1.8v-30c-0.1-1,0.7-1.9,1.7-1.9c1-0.1,1.9,0.7,1.9,1.7c0,0.1,0,0.2,0,0.3v30&#10;&#9;&#9;C182.3,318.9,181.4,319.7,180.4,319.7C180.4,319.7,180.4,319.7,180.4,319.7z"/>
	<path class="st0_coding-3-85" d="M167.2,318.2c-1,0-1.8-0.8-1.8-1.8v-27.6c0-1,0.8-1.8,1.8-1.8c1,0,1.8,0.8,1.8,1.8v27.6&#10;&#9;&#9;C169,317.4,168.2,318.2,167.2,318.2z"/>
	<path class="st0_coding-3-85" d="M151.4,318.2c-1,0-1.8-0.8-1.8-1.8V294c0-1,0.8-1.8,1.8-1.8c1,0,1.8,0.8,1.8,1.8c0,0,0,0,0,0v22.3&#10;&#9;&#9;C153.2,317.4,152.4,318.2,151.4,318.2C151.4,318.2,151.4,318.2,151.4,318.2z"/>
	<rect x="140.8" y="381" class="st4_coding-3-85 targetColor" width="55.4" height="24.5" style="fill: rgb(104, 225, 253);"/>
	<path class="st0_coding-3-85" d="M196.1,407.3h-55.4c-1,0-1.8-0.8-1.8-1.8V381c0-1,0.8-1.8,1.8-1.8h55.4c1,0,1.8,0.8,1.8,1.8v24.5&#10;&#9;&#9;C197.9,406.5,197.1,407.3,196.1,407.3z M142.6,403.6h51.7v-20.9h-51.7V403.6z"/>
	<path class="st4_coding-3-85 targetColor" d="M202.4,418.6v-19c0-4-3.2-7.2-7.2-7.2h-52.4c-4,0-7.2,3.2-7.2,7.2v19H202.4z" style="fill: rgb(104, 225, 253);"/>
	<path class="st0_coding-3-85" d="M202.4,420.4h-66.9c-1,0-1.8-0.8-1.8-1.8v-19c0-5,4.1-9.1,9.1-9.1h52.4c5,0,9.1,4.1,9.1,9.1v19&#10;&#9;&#9;C204.2,419.6,203.4,420.4,202.4,420.4z M137.4,416.8h63.3v-17.1c0-3-2.4-5.4-5.4-5.4h-52.4c-3,0-5.4,2.4-5.4,5.4V416.8z"/>
</g>
<g id="screen_coding-3-85">
	<path class="st1_coding-3-85" d="M388.8,85.8v159.6c0,2.4-2.8,4.4-6.3,4.4H116.3c-3.5,0-6.3-2-6.3-4.4V85.8c0-2.4,2.8-4.4,6.3-4.4h266.2&#10;&#9;&#9;C386,81.4,388.8,83.4,388.8,85.8z"/>
	<path class="st0_coding-3-85" d="M382.5,251.6H116.3c-4.5,0-8.1-2.7-8.1-6.2V85.8c0-3.5,3.6-6.2,8.1-6.2h266.2c4.5,0,8.1,2.7,8.1,6.2v159.6&#10;&#9;&#9;C390.6,248.8,387.1,251.6,382.5,251.6z M116.3,83.2c-2.6,0-4.5,1.3-4.5,2.6v159.6c0,1.2,1.9,2.6,4.5,2.6h266.2&#10;&#9;&#9;c2.6,0,4.5-1.4,4.5-2.6V85.8c0-1.2-1.8-2.6-4.5-2.6H116.3z"/>
	<path class="st0_coding-3-85" d="M388.8,85.8v159.6c0,2.4-2.8,4.4-6.3,4.4H205.5V81.4h177.1C386,81.4,388.8,83.4,388.8,85.8z"/>
	<path class="st0_coding-3-85" d="M382.5,251.6H205.5c-1,0-1.8-0.8-1.8-1.8V81.4c0-1,0.8-1.8,1.8-1.8h177.1c4.5,0,8.1,2.7,8.1,6.2v159.6&#10;&#9;&#9;C390.6,248.8,387.1,251.6,382.5,251.6z M207.3,247.9h175.3c2.6,0,4.5-1.4,4.5-2.6V85.8c0-1.2-1.8-2.6-4.5-2.6H207.3L207.3,247.9z"/>
	<path class="st1_coding-3-85" d="M388.8,85.8v18H110.1v-18c0-2.4,2.8-4.4,6.3-4.4h266.2C386,81.4,388.8,83.4,388.8,85.8z"/>
	<path class="st0_coding-3-85" d="M388.8,105.6H110.1c-1,0-1.8-0.8-1.8-1.8c0,0,0,0,0,0v-18c0-3.5,3.6-6.2,8.1-6.2h266.2c4.5,0,8.1,2.7,8.1,6.2&#10;&#9;&#9;v18C390.6,104.8,389.8,105.6,388.8,105.6z M111.8,102H387V85.8c0-1.2-1.8-2.6-4.5-2.6H116.3c-2.6,0-4.5,1.3-4.5,2.6L111.8,102z"/>
	<path class="st2_coding-3-85" d="M174.7,119.6h-47.4c-1,0-1.8-0.8-1.8-1.8c0-1,0.8-1.8,1.8-1.8l0,0h47.4c1,0,1.8,0.8,1.8,1.8&#10;&#9;&#9;C176.6,118.8,175.7,119.6,174.7,119.6z"/>
	<path class="st2_coding-3-85" d="M182.9,134.4h-40c-1-0.1-1.8-0.9-1.7-1.9c0.1-0.9,0.8-1.6,1.7-1.7h40c1,0.1,1.8,0.9,1.7,1.9&#10;&#9;&#9;C184.5,133.7,183.8,134.4,182.9,134.4z"/>
	<path class="st2_coding-3-85" d="M188.3,149.3h-33.2c-1-0.1-1.8-0.9-1.7-1.9c0.1-0.9,0.8-1.6,1.7-1.7h33.2c1,0.1,1.8,0.9,1.7,1.9&#10;&#9;&#9;C189.9,148.5,189.2,149.2,188.3,149.3L188.3,149.3z"/>
	<path class="st2_coding-3-85" d="M177.4,164.1h-42c-1,0-1.8-0.8-1.8-1.8c0-1,0.8-1.8,1.8-1.8h42c1,0,1.8,0.8,1.8,1.8&#10;&#9;&#9;C179.3,163.3,178.4,164.1,177.4,164.1z"/>
	<path class="st2_coding-3-85" d="M166.2,179h-38.8c-1-0.1-1.8-0.9-1.7-1.9c0.1-0.9,0.8-1.6,1.7-1.7h38.8c1,0.1,1.8,0.9,1.7,1.9&#10;&#9;&#9;C167.8,178.2,167.1,178.9,166.2,179z"/>
	<path class="st2_coding-3-85" d="M174.7,193.9h-34.3c-1,0-1.8-0.8-1.8-1.8c0-1,0.8-1.8,1.8-1.8c0,0,0,0,0,0h34.3c1,0,1.8,0.8,1.8,1.8&#10;&#9;&#9;C176.5,193.1,175.7,193.9,174.7,193.9L174.7,193.9z"/>
	<path class="st2_coding-3-85" d="M162.9,208.7h-35.6c-1-0.1-1.8-0.9-1.7-1.9c0.1-0.9,0.8-1.6,1.7-1.7h35.6c1,0.1,1.8,0.9,1.7,1.9&#10;&#9;&#9;C164.5,207.9,163.8,208.7,162.9,208.7z"/>
	<path class="st2_coding-3-85" d="M174.7,223.6h-34.3c-1,0.1-1.9-0.7-1.9-1.7s0.7-1.9,1.7-1.9c0.1,0,0.2,0,0.3,0h34.3c1,0.1,1.8,0.9,1.7,1.9&#10;&#9;&#9;C176.4,222.8,175.6,223.5,174.7,223.6L174.7,223.6z"/>
	<path class="st1_coding-3-85" d="M252.7,119.6h-28.9c-1,0-1.8-0.8-1.8-1.8c0-1,0.8-1.8,1.8-1.8h28.9c1,0,1.8,0.8,1.8,1.8&#10;&#9;&#9;C254.5,118.8,253.7,119.6,252.7,119.6z"/>
	<path class="st5_coding-3-85" d="M292.6,134.4h-59.3c-1-0.1-1.8-0.9-1.7-1.9c0.1-0.9,0.8-1.6,1.7-1.7h59.3c1,0.1,1.8,0.9,1.7,1.9&#10;&#9;&#9;C294.2,133.7,293.5,134.4,292.6,134.4z"/>
	<path class="st5_coding-3-85" d="M277.9,149.3h-44.6c-1-0.1-1.8-0.9-1.7-1.9c0.1-0.9,0.8-1.6,1.7-1.7h44.6c1,0.1,1.8,0.9,1.7,1.9&#10;&#9;&#9;C279.5,148.5,278.7,149.2,277.9,149.3z"/>
	<path class="st1_coding-3-85" d="M254.3,164.1h-25.6c-1,0-1.8-0.8-1.8-1.8c0-1,0.8-1.8,1.8-1.8h25.6c1,0,1.8,0.8,1.8,1.8&#10;&#9;&#9;S255.3,164.1,254.3,164.1C254.3,164.1,254.3,164.1,254.3,164.1L254.3,164.1z"/>
	<path class="st6_coding-3-85" d="M264.5,179h-28.9c-1-0.1-1.8-0.9-1.7-1.9c0.1-0.9,0.8-1.6,1.7-1.7h28.9c1-0.1,1.9,0.7,1.9,1.7&#10;&#9;&#9;c0.1,1-0.7,1.9-1.7,1.9C264.7,179,264.6,179,264.5,179z"/>
	<path class="st1_coding-3-85" d="M279.2,193.9h-44.6c-1,0-1.8-0.8-1.8-1.8c0-1,0.8-1.8,1.8-1.8c0,0,0,0,0,0h44.6c1,0,1.8,0.8,1.8,1.8&#10;&#9;&#9;C281,193.1,280.2,193.9,279.2,193.9L279.2,193.9z"/>
	<path class="st1_coding-3-85" d="M245.4,208.7h-21.7c-1-0.1-1.8-0.9-1.7-1.9c0.1-0.9,0.8-1.6,1.7-1.7h21.7c1,0.1,1.8,0.9,1.7,1.9&#10;&#9;&#9;C247.1,207.9,246.3,208.7,245.4,208.7z"/>
	<path class="st7_coding-3-85" d="M279.2,223.6h-47.5c-1-0.1-1.8-0.9-1.7-1.9c0.1-0.9,0.8-1.6,1.7-1.7h47.5c1,0.1,1.8,0.9,1.7,1.9&#10;&#9;&#9;C280.8,222.8,280.1,223.5,279.2,223.6L279.2,223.6z"/>
	<path class="st5_coding-3-85" d="M324.7,223.6h-31.2c-1-0.1-1.8-0.9-1.7-1.9c0.1-0.9,0.8-1.6,1.7-1.7h31.2c1,0.1,1.8,0.9,1.7,1.9&#10;&#9;&#9;C326.3,222.8,325.6,223.5,324.7,223.6z"/>
	<path class="st1_coding-3-85" d="M314.6,149.3h-22c-1-0.1-1.8-0.9-1.7-1.9c0.1-0.9,0.8-1.6,1.7-1.7h22c1-0.1,1.9,0.7,1.9,1.7&#10;&#9;&#9;c0.1,1-0.7,1.9-1.7,1.9C314.8,149.3,314.7,149.3,314.6,149.3z"/>
	<path class="st4_coding-3-85 targetColor" d="M346,134.4h-42.4c-1-0.1-1.8-0.9-1.7-1.9c0.1-0.9,0.8-1.6,1.7-1.7H346c1-0.1,1.9,0.7,1.9,1.7&#10;&#9;&#9;c0.1,1-0.7,1.9-1.7,1.9C346.2,134.5,346.1,134.5,346,134.4z" style="fill: rgb(104, 225, 253);"/>
	<path class="st6_coding-3-85" d="M338.9,149.3h-12.4c-1-0.1-1.8-0.9-1.7-1.9c0.1-0.9,0.8-1.6,1.7-1.7h12.4c1,0.1,1.8,0.9,1.7,1.9&#10;&#9;&#9;C340.6,148.5,339.8,149.2,338.9,149.3z"/>
	<path class="st6_coding-3-85" d="M285.4,179H273c-1-0.1-1.8-0.9-1.7-1.9c0.1-0.9,0.8-1.6,1.7-1.7h12.4c1,0.1,1.8,0.9,1.7,1.9&#10;&#9;&#9;C287,178.2,286.3,178.9,285.4,179L285.4,179z"/>
	<path class="st5_coding-3-85" d="M346,179h-50.4c-1-0.1-1.8-0.9-1.7-1.9c0.1-0.9,0.8-1.6,1.7-1.7H346c1-0.1,1.9,0.7,1.9,1.7&#10;&#9;&#9;c0.1,1-0.7,1.9-1.7,1.9C346.2,179,346.1,179,346,179z"/>
	<path class="st4_coding-3-85 targetColor" d="M303.6,193.9h-11c-1,0-1.8-0.8-1.8-1.8c0-1,0.8-1.8,1.8-1.8h11c1,0,1.8,0.8,1.8,1.8&#10;&#9;&#9;C305.4,193.1,304.6,193.9,303.6,193.9z" style="fill: rgb(104, 225, 253);"/>
	<path class="st1_coding-3-85" d="M346,223.6h-7c-1,0.1-1.9-0.7-1.9-1.7c-0.1-1,0.7-1.9,1.7-1.9c0.1,0,0.2,0,0.3,0h7c1-0.1,1.9,0.7,1.9,1.7&#10;&#9;&#9;c0.1,1-0.7,1.9-1.7,1.9C346.2,223.6,346.1,223.6,346,223.6z"/>
	<circle class="st6_coding-3-85" cx="124.4" cy="91.7" r="4.4"/>
	<path class="st0_coding-3-85" d="M124.4,98c-3.4,0-6.2-2.8-6.2-6.2c0-3.4,2.8-6.2,6.2-6.2c3.4,0,6.2,2.8,6.2,6.2C130.6,95.2,127.9,98,124.4,98z&#10;&#9;&#9; M124.4,89.2c-1.4,0-2.6,1.2-2.6,2.6s1.2,2.6,2.6,2.6c1.4,0,2.6-1.2,2.6-2.6l0,0C127,90.3,125.9,89.2,124.4,89.2&#10;&#9;&#9;C124.5,89.1,124.4,89.1,124.4,89.2L124.4,89.2z"/>
	<circle class="st5_coding-3-85" cx="142.2" cy="91.7" r="4.4"/>
	<path class="st0_coding-3-85" d="M142.2,98c-3.4,0-6.2-2.8-6.2-6.2s2.8-6.2,6.2-6.2s6.2,2.8,6.2,6.2C148.5,95.2,145.7,98,142.2,98z M142.2,89.2&#10;&#9;&#9;c-1.4,0-2.6,1.2-2.6,2.6s1.2,2.6,2.6,2.6c1.4,0,2.6-1.2,2.6-2.6C144.9,90.3,143.7,89.2,142.2,89.2&#10;&#9;&#9;C142.3,89.1,142.3,89.1,142.2,89.2L142.2,89.2z"/>
	<circle class="st7_coding-3-85" cx="160.1" cy="91.7" r="4.4"/>
	<path class="st0_coding-3-85" d="M160.1,98c-3.4,0-6.2-2.8-6.2-6.2s2.8-6.2,6.2-6.2s6.2,2.8,6.2,6.2C166.3,95.2,163.5,98,160.1,98z M160.1,89.2&#10;&#9;&#9;c-1.4,0-2.6,1.2-2.6,2.6s1.2,2.6,2.6,2.6c1.4,0,2.6-1.2,2.6-2.6C162.7,90.3,161.5,89.2,160.1,89.2&#10;&#9;&#9;C160.1,89.1,160.1,89.1,160.1,89.2L160.1,89.2z"/>
</g>
</svg>