<svg xmlns="http://www.w3.org/2000/svg" xmlns:xlink="http://www.w3.org/1999/xlink" version="1.1" x="0px" y="0px" viewBox="0 0 512 640" style="enable-background:new 0 0 512 512;" xml:space="preserve"><ellipse cx="25.9" cy="141" rx="9.9" ry="9.9"/><ellipse cx="83.5" cy="141" rx="9.9" ry="9.9"/><ellipse cx="141" cy="141" rx="9.9" ry="9.9"/><ellipse cx="198.5" cy="141" rx="9.9" ry="9.9"/><circle cx="256" cy="141" r="9.9"/><ellipse cx="313.5" cy="141" rx="9.9" ry="9.9"/><ellipse cx="371" cy="141" rx="9.9" ry="9.9"/><ellipse cx="428.5" cy="141" rx="9.9" ry="9.9"/><ellipse cx="486.1" cy="141" rx="9.9" ry="9.9"/><ellipse cx="25.9" cy="198.5" rx="9.9" ry="9.9"/><ellipse cx="83.5" cy="198.5" rx="9.9" ry="9.9"/><ellipse cx="141" cy="198.5" rx="9.9" ry="9.9"/><ellipse cx="198.5" cy="198.5" rx="9.9" ry="9.9"/><circle cx="256" cy="198.5" r="9.9"/><ellipse cx="313.5" cy="198.5" rx="9.9" ry="9.9"/><ellipse cx="371" cy="198.5" rx="9.9" ry="9.9"/><ellipse cx="428.5" cy="198.5" rx="9.9" ry="9.9"/><ellipse cx="486.1" cy="198.5" rx="9.9" ry="9.9"/><ellipse cx="25.9" cy="256" rx="9.9" ry="9.9"/><ellipse cx="83.5" cy="256" rx="9.9" ry="9.9"/><ellipse cx="141" cy="256" rx="9.9" ry="9.9"/><ellipse cx="198.5" cy="256" rx="9.9" ry="9.9"/><circle cx="256" cy="256" r="9.9"/><ellipse cx="313.5" cy="256" rx="9.9" ry="9.9"/><ellipse cx="371" cy="256" rx="9.9" ry="9.9"/><ellipse cx="428.5" cy="256" rx="9.9" ry="9.9"/><ellipse cx="486.1" cy="256" rx="9.9" ry="9.9"/><ellipse cx="25.9" cy="313.5" rx="9.9" ry="9.9"/><ellipse transform="matrix(0.9871 -0.1602 0.1602 0.9871 -49.1427 17.4259)" cx="83.5" cy="313.5" rx="9.9" ry="9.9"/><ellipse cx="141" cy="313.5" rx="9.9" ry="9.9"/><ellipse cx="198.5" cy="313.5" rx="9.9" ry="9.9"/><circle cx="256" cy="313.5" r="9.9"/><ellipse cx="313.5" cy="313.5" rx="9.9" ry="9.9"/><ellipse cx="371" cy="313.5" rx="9.9" ry="9.9"/><ellipse cx="428.5" cy="313.5" rx="9.9" ry="9.9"/><ellipse cx="486.1" cy="313.5" rx="9.9" ry="9.9"/><ellipse cx="25.9" cy="371.1" rx="9.9" ry="9.9"/><ellipse transform="matrix(0.9871 -0.1602 0.1602 0.9871 -58.3542 18.1682)" cx="83.5" cy="371" rx="9.9" ry="9.9"/><ellipse cx="141" cy="371" rx="9.9" ry="9.9"/><ellipse cx="198.5" cy="371" rx="9.9" ry="9.9"/><circle cx="256" cy="371" r="9.9"/><ellipse cx="313.5" cy="371" rx="9.9" ry="9.9"/><ellipse cx="371" cy="371" rx="9.9" ry="9.9"/><ellipse cx="428.5" cy="371.1" rx="9.9" ry="9.9"/><ellipse cx="486.1" cy="371" rx="9.9" ry="9.9"/><text x="0" y="527" fill="#000000" font-size="5px" font-weight="bold" font-family="'Helvetica Neue', Helvetica, Arial-Unicode, Arial, Sans-serif">Created by WiStudio</text><text x="0" y="532" fill="#000000" font-size="5px" font-weight="bold" font-family="'Helvetica Neue', Helvetica, Arial-Unicode, Arial, Sans-serif">from the Noun Project</text></svg>