<svg id="visual" viewBox="0 0 900 600" width="900" height="600" xmlns="http://www.w3.org/2000/svg" xmlns:xlink="http://www.w3.org/1999/xlink" version="1.1"><rect x="0" y="0" width="900" height="600" fill="#DDE4EB"></rect><g transform="translate(10.483203685367144 1.8087230948645043)"><path d="M109.6 -172.1C139.9 -151.1 160.9 -117.1 173.6 -81.6C186.2 -46 190.6 -9 186.9 28C183.3 65 171.8 101.9 149.2 131C126.6 160 93 181.2 56.8 190.4C20.7 199.6 -18.1 196.7 -53.2 184.8C-88.3 172.9 -119.7 151.9 -147.4 125C-175 98 -198.9 65 -206.4 28.2C-214 -8.6 -205.2 -49.1 -186.8 -83.5C-168.3 -117.9 -140.1 -146 -107.4 -165.9C-74.6 -185.8 -37.3 -197.4 1.2 -199.2C39.6 -201 79.3 -193.1 109.6 -172.1" fill="#C2D8ED"></path></g></svg>