<svg id="visual" viewBox="0 0 900 600" width="900" height="600" xmlns="http://www.w3.org/2000/svg" xmlns:xlink="http://www.w3.org/1999/xlink" version="1.1"><rect x="0" y="0" width="900" height="600" fill="#E4EBF5"></rect><path d="M0 483L21.5 466.3C43 449.7 86 416.3 128.8 399.3C171.7 382.3 214.3 381.7 257.2 381.8C300 382 343 383 385.8 392.7C428.7 402.3 471.3 420.7 514.2 435.8C557 451 600 463 642.8 471.5C685.7 480 728.3 485 771.2 488.5C814 492 857 494 878.5 495L900 496L900 601L878.5 601C857 601 814 601 771.2 601C728.3 601 685.7 601 642.8 601C600 601 557 601 514.2 601C471.3 601 428.7 601 385.8 601C343 601 300 601 257.2 601C214.3 601 171.7 601 128.8 601C86 601 43 601 21.5 601L0 601Z" fill="#0066FF" stroke-linecap="round" stroke-linejoin="miter"></path></svg>